<?xml version="1.0" standalone="no"?>
<!DOCTYPE svg PUBLIC "-//W3C//DTD SVG 20010904//EN"
 "http://www.w3.org/TR/2001/REC-SVG-20010904/DTD/svg10.dtd">
<svg version="1.0" xmlns="http://www.w3.org/2000/svg"
 width="900.000000pt" height="900.000000pt" viewBox="0 0 900.000000 900.000000"
 preserveAspectRatio="xMidYMid meet">

<g transform="translate(0.000000,900.000000) scale(0.100000,-0.100000)"
fill="#000000" stroke="none">
<path d="M5115 8210 c-379 -28 -744 -112 -1038 -239 -27 -12 -52 -21 -56 -21
-4 0 -13 17 -20 37 -20 54 -103 137 -164 164 -47 21 -70 23 -247 27 -375 8
-475 -26 -546 -183 -12 -27 -26 -80 -29 -117 l-7 -68 -1023 0 c-1019 0 -1022
0 -1049 -21 -36 -28 -37 -89 -1 -124 l24 -25 994 0 c547 0 1009 -3 1026 -6 43
-9 39 -21 -11 -29 -70 -12 -267 -70 -363 -107 -135 -53 -287 -132 -405 -211
-174 -117 -81 -107 -991 -107 l-790 0 -24 -25 c-36 -35 -34 -88 4 -126 l29
-29 686 0 c609 0 686 -2 700 -16 24 -24 20 -38 -30 -96 -106 -123 -213 -308
-274 -473 l-26 -70 -406 -3 -406 -2 -27 47 c-81 141 -226 211 -362 174 -54
-15 -73 -34 -73 -75 0 -51 31 -72 117 -79 84 -7 103 -15 139 -63 81 -105 6
-258 -125 -258 -97 0 -157 66 -170 185 -6 57 -12 76 -30 90 -33 27 -73 24
-102 -7 -22 -23 -24 -34 -24 -117 0 -77 4 -99 23 -135 73 -137 227 -214 365
-182 102 25 174 78 236 177 l32 51 115 7 c123 8 640 3 649 -6 3 -3 0 -28 -5
-55 -6 -27 -13 -122 -17 -211 l-6 -162 -224 -3 -225 -3 -24 -28 c-13 -15 -24
-37 -24 -48 0 -28 26 -75 47 -85 10 -4 119 -11 243 -14 l224 -5 9 -35 c24 -93
61 -211 83 -268 14 -35 23 -70 20 -78 -5 -12 -116 -14 -719 -14 l-714 0 -21
-23 c-31 -33 -30 -90 3 -122 l24 -25 754 0 c588 0 757 -3 768 -12 9 -7 40 -49
69 -93 73 -110 119 -166 219 -266 140 -139 323 -264 550 -375 56 -27 101 -52
101 -56 0 -5 -551 -8 -1224 -8 -1205 0 -1224 0 -1249 -20 -33 -26 -41 -63 -22
-100 33 -65 -69 -61 1503 -60 1103 1 1435 -2 1455 -11 l27 -12 0 -143 c0 -131
-2 -144 -19 -154 -13 -6 -173 -10 -451 -10 -266 0 -438 -4 -450 -10 -26 -14
-43 -71 -31 -103 16 -42 52 -59 118 -56 l58 3 6 -38 c3 -21 12 -42 20 -47 8
-5 52 -9 99 -9 135 0 180 -43 180 -172 1 -324 173 -584 482 -727 110 -52 213
-72 389 -78 165 -6 265 5 393 42 363 105 598 374 614 700 7 162 -29 273 -135
405 -92 116 -252 230 -405 291 -29 11 -66 27 -83 34 -16 8 -165 64 -330 124
-165 60 -370 137 -455 171 -85 34 -175 70 -200 79 -92 37 -319 141 -396 181
-85 45 -256 156 -289 186 -11 11 -40 35 -65 55 -362 293 -567 830 -510 1333
46 398 267 782 605 1051 239 190 620 346 910 373 l70 7 5 225 c7 329 1 324
325 324 116 1 222 -2 237 -7 17 -4 39 -25 55 -49 l28 -41 5 -225 5 -225 80
-18 c276 -59 601 -211 796 -371 90 -73 110 -101 146 -194 25 -65 63 -112 155
-191 93 -81 210 -469 195 -648 -8 -100 -55 -177 -132 -218 -37 -20 -59 -22
-296 -25 -322 -5 -351 0 -424 71 -35 35 -58 69 -70 102 -67 189 -145 296 -294
403 -309 225 -816 210 -1131 -33 -133 -102 -226 -246 -253 -393 -38 -201 35
-415 182 -536 69 -57 213 -127 471 -229 196 -78 287 -112 570 -214 920 -331
1319 -614 1526 -1083 42 -96 123 -349 144 -450 18 -87 24 -362 11 -482 -25
-228 -124 -487 -262 -683 -81 -113 -269 -303 -376 -378 -164 -115 -437 -248
-618 -301 -93 -28 -258 -60 -367 -72 l-57 -7 -3 -178 c-3 -203 -8 -215 -88
-256 -41 -22 -57 -23 -239 -23 -174 0 -199 2 -236 20 -72 35 -80 60 -81 255 0
94 -1 176 -2 183 -1 7 -19 12 -49 12 -67 0 -247 43 -362 85 -247 93 -453 222
-633 398 -99 97 -152 161 -242 295 -177 261 -275 549 -278 817 -2 99 1 116 24
167 38 82 86 112 187 116 118 4 121 6 121 52 0 31 4 40 23 45 68 21 92 104 41
144 -26 21 -33 21 -781 21 l-755 0 -29 -29 c-45 -46 -32 -123 26 -149 19 -9
164 -12 545 -12 363 0 520 -3 520 -11 0 -6 -13 -29 -29 -52 -44 -65 -63 -132
-70 -247 l-6 -105 -67 -5 c-36 -3 -68 -7 -71 -10 -42 -51 -48 -95 -17 -128 23
-25 44 -31 118 -34 l54 -3 28 -110 c30 -115 67 -220 100 -285 38 -75 56 -70
-292 -68 -307 3 -314 3 -367 27 -45 21 -61 35 -97 92 -55 85 -120 142 -193
170 -82 31 -205 24 -287 -16 -147 -72 -227 -223 -202 -380 12 -80 43 -139 103
-200 53 -54 108 -84 192 -105 64 -16 160 -2 232 34 46 24 120 95 156 150 36
54 49 56 479 56 l395 0 70 -92 c79 -105 188 -229 243 -277 21 -18 38 -37 38
-42 0 -5 -223 -10 -496 -11 l-496 -3 -19 -24 c-27 -34 -24 -79 8 -113 l27 -28
596 0 596 0 60 -36 c182 -111 361 -190 554 -246 l115 -33 6 -105 c3 -58 11
-118 18 -133 6 -16 11 -30 11 -33 0 -2 -502 -5 -1116 -6 l-1116 -3 -19 -24
c-36 -44 -14 -144 34 -156 33 -8 1495 1 1545 10 29 5 48 3 55 -4 8 -8 735 -11
2688 -11 2667 0 2676 0 2702 20 14 11 28 33 32 50 8 37 -18 93 -49 108 -15 7
-308 11 -869 14 -465 1 -843 6 -839 9 4 4 43 17 87 29 400 112 729 247 982
401 388 237 761 571 1021 915 344 457 568 985 672 1584 41 241 53 385 52 640
-1 460 -84 894 -259 1355 -160 422 -421 814 -788 1180 -418 418 -914 716
-1500 902 -236 75 -402 109 -645 133 -149 15 -454 20 -595 10z m620 -210 c168
-21 441 -79 475 -100 12 -7 11 -13 -10 -34 -28 -31 -43 -32 -134 -6 -270 74
-820 94 -1171 41 -142 -21 -327 -65 -445 -106 -41 -14 -91 -27 -110 -29 -19
-2 -91 -27 -160 -56 -173 -72 -160 -71 -160 -16 0 25 1 46 3 46 1 0 48 20 104
44 262 114 647 203 988 230 89 7 538 -3 620 -14z m-95 -210 c144 -13 273 -34
420 -70 177 -43 198 -50 425 -140 513 -205 1004 -576 1348 -1018 340 -437 545
-943 628 -1547 25 -186 30 -565 10 -745 -13 -117 -48 -336 -61 -390 -42 -166
-57 -219 -91 -321 -147 -446 -378 -816 -729 -1170 -205 -206 -368 -340 -574
-469 -329 -206 -744 -366 -1106 -425 -58 -9 -127 -21 -155 -26 -70 -12 -523
-34 -532 -25 -4 4 -2 16 5 26 7 11 12 30 13 42 0 13 3 17 6 10 4 -10 10 -9 25
4 15 15 42 19 141 21 433 12 880 126 1282 325 142 71 207 109 335 197 285 196
557 452 759 715 240 311 432 733 519 1141 62 288 77 457 69 750 -12 425 -81
749 -244 1150 -350 863 -1188 1570 -2126 1795 -235 56 -324 65 -652 65 -333 0
-395 -7 -698 -81 -82 -20 -149 -35 -150 -33 -2 2 -15 21 -30 41 l-28 37 38 17
c86 37 360 97 543 119 129 16 455 18 610 5z m1405 -260 c3 -6 -1 -7 -9 -4 -18
7 -21 14 -7 14 6 0 13 -4 16 -10z m-1581 -24 c18 -8 46 -31 62 -52 l29 -37 0
-226 c0 -255 -4 -270 -75 -310 -46 -26 -73 -26 -127 -1 -79 35 -83 51 -83 315
0 201 2 234 17 255 44 65 108 85 177 56z m1691 -46 c3 -5 1 -10 -4 -10 -6 0
-11 5 -11 10 0 6 2 10 4 10 3 0 8 -4 11 -10z m-375 -358 c24 -12 42 -32 59
-65 21 -43 22 -53 12 -86 -10 -36 -112 -225 -168 -314 -61 -97 -162 -102 -242
-12 -25 29 -31 44 -31 81 0 39 13 68 86 198 47 83 97 163 112 179 46 48 99 54
172 19z m-1486 -335 c43 -56 123 -237 155 -347 47 -166 55 -217 55 -350 0
-147 -15 -211 -78 -345 -65 -135 -120 -176 -155 -114 -14 25 -12 30 32 102 26
42 57 102 68 134 70 203 29 508 -106 778 -36 72 -65 135 -65 141 0 17 23 34
46 34 14 0 33 -13 48 -33z m-1950 -487 l26 -10 0 -465 c0 -313 -3 -465 -10
-465 -6 0 -33 11 -60 25 l-50 25 0 424 0 424 31 26 c35 30 30 29 63 16z m4339
-116 c60 -31 82 -53 108 -109 29 -63 20 -147 -22 -207 -17 -24 -225 -159 -984
-641 -280 -178 -505 -320 -575 -364 -30 -19 -102 -65 -160 -102 l-105 -69 -6
-84 c-7 -107 -44 -190 -117 -266 -88 -90 -260 -156 -315 -119 -12 8 -52 41
-88 73 -128 114 -232 197 -325 261 l-94 64 6 57 c22 203 145 357 333 417 74
24 215 17 289 -15 45 -20 56 -21 80 -11 26 12 283 170 547 336 72 45 202 127
290 183 88 55 192 120 230 145 39 24 120 75 180 112 61 38 196 123 300 189
105 66 213 132 240 148 65 36 119 37 188 2z m-4100 -136 c14 -18 40 -48 57
-67 18 -19 43 -51 56 -71 l24 -36 -2 -326 -3 -325 -85 32 -85 32 -3 397 c-1
227 2 396 7 396 5 0 20 -15 34 -32z m4577 -1316 c102 -51 107 -197 8 -248 -47
-25 -437 -22 -480 4 -57 34 -79 138 -43 200 34 56 58 62 280 62 171 0 205 -3
235 -18z m397 -24 c-3 -7 -5 -2 -5 12 0 14 2 19 5 13 2 -7 2 -19 0 -25z m0
-235 c-3 -10 -5 -4 -5 12 0 17 2 24 5 18 2 -7 2 -21 0 -30z m-2989 -415 c102
-149 213 -475 242 -708 27 -221 0 -578 -51 -686 -11 -22 -21 -29 -43 -29 -49
0 -52 20 -26 152 21 103 24 146 25 343 0 172 -4 246 -17 315 -34 181 -103 380
-184 533 -35 67 -42 87 -34 103 18 34 56 24 88 -23z m-2196 -206 c2 -8 2 -287
0 -619 -2 -599 -2 -603 -23 -603 -28 0 -77 27 -89 49 -6 13 -10 227 -10 619
l0 600 59 -15 c38 -10 61 -21 63 -31z m193 -190 c6 -4 43 -47 83 -95 l72 -88
0 -425 0 -424 -90 0 -90 0 0 520 c0 286 3 520 8 520 4 0 12 -4 17 -8z m4051
-331 c168 -111 191 -138 182 -209 -8 -56 -40 -97 -92 -117 -59 -23 -80 -15
-236 85 -141 90 -176 123 -186 174 -8 47 0 78 33 116 32 38 55 49 109 49 35 1
60 -12 190 -98z m-1033 -692 c57 -16 83 -49 162 -215 92 -192 96 -219 44 -279
-41 -47 -92 -60 -150 -40 -24 9 -52 23 -62 33 -31 27 -177 330 -177 366 0 50
31 98 80 124 51 25 52 25 103 11z m-5986 -100 c69 -34 97 -78 101 -163 4 -69
2 -74 -30 -116 -43 -57 -88 -80 -158 -80 -116 0 -199 98 -188 220 13 127 153
198 275 139z m4923 -500 c0 -30 20 -22 21 9 1 15 6 -2 11 -38 5 -36 6 -94 3
-130 -6 -57 -11 -69 -45 -102 -33 -34 -43 -38 -86 -38 -37 0 -57 6 -79 24
l-30 24 56 59 c51 53 56 62 54 101 -1 23 2 42 7 42 4 0 8 -14 8 -31 0 -16 4
-28 9 -25 4 3 6 17 3 31 -3 18 0 25 12 25 9 0 16 7 16 15 0 8 5 15 11 15 6 0
9 -7 6 -15 -4 -8 -2 -17 3 -20 6 -4 10 3 10 14 0 11 -4 22 -9 25 -5 3 -7 15
-4 26 4 16 2 19 -13 14 -15 -5 -16 -4 -4 4 18 14 40 -3 40 -29z m-70 17 c0 -3
-4 -8 -10 -11 -5 -3 -10 -1 -10 4 0 6 5 11 10 11 6 0 10 -2 10 -4z m14 -37
c-19 -21 -34 -25 -34 -9 0 6 7 10 15 10 8 0 15 7 15 16 0 8 5 12 11 9 7 -5 4
-14 -7 -26z m-1349 -759 c98 -37 343 -107 530 -152 l140 -33 -394 -3 c-217 -1
-396 0 -399 3 -3 2 1 12 9 21 8 9 15 51 17 105 3 49 7 89 11 89 3 0 42 -14 86
-30z"/>
<path d="M5405 4917 c-92 -38 -163 -106 -189 -184 -24 -71 -21 -177 8 -238 25
-53 91 -122 141 -148 119 -62 249 -46 347 42 56 50 81 93 97 169 16 75 14 103
-10 168 -45 120 -153 195 -288 201 -45 1 -88 -2 -106 -10z m170 -160 c78 -44
106 -126 69 -203 -69 -145 -294 -85 -294 78 0 116 121 184 225 125z"/>
<path d="M5475 1950 c-3 -5 -1 -10 4 -10 6 0 11 5 11 10 0 6 -2 10 -4 10 -3 0
-8 -4 -11 -10z"/>
<path d="M515 7775 c-31 -30 -32 -66 -2 -99 36 -41 71 -43 107 -8 18 18 30 41
30 57 0 36 -41 75 -80 75 -19 0 -40 -9 -55 -25z"/>
<path d="M675 6788 c-48 -56 -18 -132 57 -144 29 -5 40 -1 67 22 17 16 34 43
37 61 5 27 1 37 -24 63 -44 43 -100 43 -137 -2z"/>
<path d="M122 5687 c-47 -50 -15 -127 51 -127 69 0 101 77 52 125 -31 32 -74
33 -103 2z"/>
<path d="M540 5688 c-26 -28 -26 -82 0 -108 45 -45 130 -9 130 54 0 63 -87
100 -130 54z"/>
<path d="M2461 5210 c-93 -68 -81 -190 23 -238 48 -23 71 -28 62 -13 -7 11 17
21 48 21 40 0 86 68 86 127 0 39 -30 94 -64 114 -47 29 -105 25 -155 -11z"/>
<path d="M409 4661 c-37 -38 -39 -82 -4 -116 52 -53 145 -16 145 57 0 38 -6
48 -40 71 -36 25 -68 21 -101 -12z"/>
<path d="M860 4683 c-66 -25 -82 -103 -29 -147 l31 -26 218 0 c120 0 230 4
244 10 55 21 69 106 24 146 -18 17 -42 19 -247 21 -124 1 -233 -1 -241 -4z"/>
<path d="M4755 4018 c-11 -6 -24 -18 -28 -25 -5 -8 -22 -29 -38 -47 -51 -58
-32 -155 40 -203 47 -32 96 -30 153 6 54 34 84 98 75 157 -7 43 -50 102 -84
115 -33 12 -93 11 -118 -3z"/>
<path d="M344 3050 c-49 -20 -70 -93 -39 -137 20 -29 75 -46 107 -34 31 11 68
57 68 82 0 31 -21 65 -50 82 -31 19 -54 20 -86 7z"/>
<path d="M765 3016 c-32 -32 -33 -76 -1 -113 l24 -28 173 -3 c95 -2 183 -1
196 3 59 15 83 88 44 136 -19 24 -23 24 -215 27 l-196 3 -25 -25z"/>
<path d="M615 1785 c-52 -51 -15 -135 60 -135 45 0 85 39 85 82 0 41 -40 78
-85 78 -25 0 -44 -8 -60 -25z"/>
<path d="M917 1332 c-35 -36 -36 -84 -3 -117 33 -33 94 -37 466 -31 173 2 359
5 413 5 93 1 99 2 122 27 27 29 33 78 12 105 -29 38 -45 39 -519 39 l-464 0
-27 -28z"/>
<path d="M2244 1349 c-47 -24 -57 -92 -19 -133 23 -25 29 -26 121 -26 93 0 99
1 126 27 35 33 36 72 4 110 -23 27 -29 28 -118 30 -52 2 -102 -2 -114 -8z"/>
<path d="M8013 1046 c-33 -15 -63 -60 -63 -96 0 -29 27 -77 49 -90 50 -26 131
-3 157 45 47 87 -49 183 -143 141z"/>
<path d="M540 1017 c-75 -38 -48 -146 36 -147 39 0 75 37 76 80 2 56 -61 94
-112 67z"/>
</g>
</svg>
